<?xml version="1.0" encoding="UTF-8" standalone="no"?>
<svg xmlns:dc="http://purl.org/dc/elements/1.1/" xmlns:cc="http://creativecommons.org/ns#" xmlns:rdf="http://www.w3.org/1999/02/22-rdf-syntax-ns#" xmlns:svg="http://www.w3.org/2000/svg" xmlns="http://www.w3.org/2000/svg" xmlns:xlink="http://www.w3.org/1999/xlink" width="25" height="25" viewBox="0 0 6.6145835 6.6145835" version="1.1" id="svg8">
  <defs id="defs2">
    <clipPath clipPathUnits="userSpaceOnUse" id="clipPath924">
      <path style="fill:#FFFFFF;fill-rule:evenodd;stroke:none;stroke-width:0.264583px;stroke-linecap:butt;stroke-linejoin:miter;stroke-opacity:1" d="m 1.7041572,3.7699982 h 3.2320137 c 0,0 -0.068733,1.5617661 -1.5913359,1.5617661 -1.4169301,0 -1.6406778,-1.5617661 -1.6406778,-1.5617661 z" id="path926"/>
    </clipPath>
  </defs>
  <metadata id="metadata5">
    
  </metadata>
  <g id="layer4" style="display:inline">
    <path id="path875" style="fill:none;fill-rule:evenodd;stroke:#FFFFFF;stroke-width:0.132292;stroke-linecap:butt;stroke-linejoin:miter;stroke-miterlimit:4;stroke-dasharray:none;stroke-opacity:1" d="m 3.3078083,2.1686055 c -0.9509843,0 -1.0060373,1.033764 -0.6764997,1.4787122 0.098615,0.1331533 0.3573538,0.4623333 0.359736,0.6665243 0.00167,0.1420359 0.080662,0.3783193 0.3253581,0.3783193 0.2446957,0 0.3059044,-0.2362834 0.3075555,-0.3783193 C 3.6263469,4.109651 3.8856925,3.780471 3.984308,3.6473177 4.3138458,3.2023695 4.2587925,2.1686055 3.3078083,2.1686055 Z"/>
    <path id="path884" style="fill:#FFFFFF;fill-rule:evenodd;stroke:none;stroke-width:0.264583;stroke-linecap:butt;stroke-linejoin:miter;stroke-miterlimit:4;stroke-dasharray:none;stroke-opacity:1" d="m 2.9146331,4.4150734 c 0,0 0.00691,0.867105 0.01125,0.917603 0.00434,0.050498 0.118745,0.1304555 0.250914,0.1320146 l 0.028551,0.058057 c 0,0 0.033136,0.024804 0.1016747,0.024809 0.068539,5e-6 0.1016739,-0.024809 0.1016739,-0.024809 L 3.4372477,5.464691 C 3.5694159,5.4631298 3.6838246,5.3831744 3.688161,5.3326764 3.692497,5.2821786 3.6985436,4.1309995 3.6985436,4.1309995 3.6365903,4.2171582 3.5838922,4.3231098 3.306599,4.3380261 3.0293039,4.323109 2.976606,4.2171578 2.9146521,4.1309995 Z"/>
    <path style="fill:none;fill-rule:evenodd;stroke:#FFFFFF;stroke-width:0.132292;stroke-linecap:round;stroke-linejoin:miter;stroke-miterlimit:4;stroke-dasharray:none;stroke-opacity:1" d="M 1.6054057,4.0313374 2.1977676,3.7048854" id="path889"/>
    <use x="0" y="0" xlink:href="#path889" id="use1015" width="100%" height="100%"/>
    <use x="0" y="0" xlink:href="#path889" transform="rotate(30,3.3361643,3.0147124)" id="use1017" width="100%" height="100%"/>
    <use x="0" y="0" xlink:href="#path889" transform="rotate(60,3.336164,3.0147124)" id="use1019" width="100%" height="100%"/>
    <use x="0" y="0" xlink:href="#path889" transform="rotate(90,3.336164,3.0147124)" id="use1021" width="100%" height="100%"/>
    <use x="0" y="0" xlink:href="#path889" transform="rotate(120,3.336164,3.0147124)" id="use1023" width="100%" height="100%"/>
    <use x="0" y="0" xlink:href="#path889" transform="rotate(150,3.336164,3.0147124)" id="use1025" width="100%" height="100%"/>
    <use x="0" y="0" xlink:href="#path889" transform="rotate(180,3.336164,3.0147124)" id="use1027" width="100%" height="100%"/>
    <use x="0" y="0" xlink:href="#path889" transform="rotate(-150,3.336164,3.0147124)" id="use1029" width="100%" height="100%"/>
    <use x="0" y="0" xlink:href="#path889" transform="rotate(-120,3.336164,3.0147124)" id="use1031" width="100%" height="100%"/>
  </g>
</svg>
