<?xml version="1.0" encoding="UTF-8" standalone="no"?>
<svg xmlns:dc="http://purl.org/dc/elements/1.1/" xmlns:cc="http://creativecommons.org/ns#" xmlns:rdf="http://www.w3.org/1999/02/22-rdf-syntax-ns#" xmlns:svg="http://www.w3.org/2000/svg" xmlns="http://www.w3.org/2000/svg" xmlns:xlink="http://www.w3.org/1999/xlink" width="25" height="25" viewBox="0 0 6.6145835 6.6145835" version="1.1" id="svg8">
  <defs id="defs2">
    <linearGradient id="linearGradient946">
      <stop style="stop-color:#f32c5d;stop-opacity:1;" offset="0" id="stop942"/>
      <stop style="stop-color:#f3557b;stop-opacity:1" offset="1" id="stop944"/>
    </linearGradient>
    <linearGradient id="linearGradient936">
      <stop style="stop-color:#fdae4b;stop-opacity:1" offset="0" id="stop932"/>
      <stop style="stop-color:#fedf60;stop-opacity:1" offset="1" id="stop934"/>
    </linearGradient>
    <clipPath clipPathUnits="userSpaceOnUse" id="clipPath924">
      <path style="fill:#000000;fill-rule:evenodd;stroke:none;stroke-width:0.264583px;stroke-linecap:butt;stroke-linejoin:miter;stroke-opacity:1" d="m 1.7041572,3.7699982 h 3.2320137 c 0,0 -0.068733,1.5617661 -1.5913359,1.5617661 -1.4169301,0 -1.6406778,-1.5617661 -1.6406778,-1.5617661 z" id="path926"/>
    </clipPath>
    <radialGradient xlink:href="#linearGradient936" id="radialGradient940" cx="2.163883" cy="4.9651446" fx="2.163883" fy="4.9651446" r="2.5665086" gradientUnits="userSpaceOnUse" gradientTransform="matrix(1.5677972,0,0,1.5617323,-1.1347425,-2.7326849)"/>
    <linearGradient xlink:href="#linearGradient946" id="linearGradient948" x1="3.3675704" y1="5.1972847" x2="3.3675704" y2="4.4233303" gradientUnits="userSpaceOnUse"/>
  </defs>
  <metadata id="metadata5">
    
  </metadata>
  <g id="layer2" style="display:inline;opacity:1">
    <circle style="fill:url(#radialGradient940);fill-opacity:1;stroke:#ffffff;stroke-width:0;stroke-linecap:round;stroke-miterlimit:2" id="path910" cx="3.320164" cy="3.3288038" r="2.5665081"/>
    <path style="fill:#000000;fill-rule:evenodd;stroke:none;stroke-width:0.264583px;stroke-linecap:butt;stroke-linejoin:miter;stroke-opacity:1" d="m 1.5414293,3.5874956 h 3.5574696 c 0,0 -0.075654,1.7190321 -1.7515795,1.7190321 -1.5596115,0 -1.8058901,-1.7190321 -1.8058901,-1.7190321 z" id="path914"/>
    <path style="fill:url(#linearGradient948);fill-opacity:1;fill-rule:evenodd;stroke:none;stroke-width:0.240378px;stroke-linecap:butt;stroke-linejoin:miter;stroke-opacity:1" d="M 5.1284164,5.4799049 H 1.6741411 c 0,0 0.3704148,-1.3113517 1.648883,-1.3113517 1.1897388,0 1.8053923,1.3113517 1.8053923,1.3113517 z" id="path916" clip-path="url(#clipPath924)" transform="matrix(1.1006976,0,0,1.1006976,-0.33433244,-0.5621325)"/>
    <path style="fill:none;fill-rule:evenodd;stroke:#000000;stroke-width:0.212;stroke-linecap:round;stroke-linejoin:round;stroke-miterlimit:4;stroke-dasharray:none;stroke-opacity:1" d="M 1.6858242,2.9356791 C 1.9345039,2.6996968 2.1029341,2.4717715 2.5229689,2.5178618 2.2167016,2.219801 1.8470341,2.3485392 1.6695354,2.3663017" id="path928"/>
    <use x="0" y="0" xlink:href="#path928" id="use930" transform="matrix(-1,0,0,1,6.5393649,0)" width="100%" height="100%"/>
  </g>
</svg>
